<svg width="66" height="64" viewBox="0 0 66 64" fill="none" xmlns="http://www.w3.org/2000/svg">
<path d="M14.0663 41.15V48.818C16.4819 51.6904 19.5271 54.0048 22.9805 55.5931C26.434 57.1814 30.2091 58.0036 34.0313 58C42.9495 58 50.8118 53.608 55.44 46.934V36.186C53.856 46.272 44.8738 54 34.0313 54C25.0512 54 17.3477 48.7 14.0663 41.15ZM51.6244 20.752V17.308C51.6183 16.5485 51.7467 15.7935 52.0039 15.076C47.1964 10.5311 40.7454 7.99129 34.0313 8.00003C28.0229 7.99138 22.2017 10.0261 17.5808 13.75L17.5911 13.872L17.5932 13.926V19.326C19.6243 17.0254 22.1456 15.1792 24.9834 13.9144C27.8213 12.6497 30.9081 11.9966 34.0313 12C41.2789 12 47.6933 15.452 51.6244 20.752Z" fill="white"/>
<path d="M50.5312 33.0001C50.5312 37.2436 48.7929 41.3132 45.6985 44.3138C42.6042 47.3144 38.4073 49.0001 34.0312 49.0001C29.6552 49.0001 25.4583 47.3144 22.364 44.3138C19.2696 41.3132 17.5312 37.2436 17.5312 33.0001C17.5312 28.7566 19.2696 24.687 22.364 21.6864C25.4583 18.6858 29.6552 17.0001 34.0312 17.0001C38.4073 17.0001 42.6042 18.6858 45.6985 21.6864C48.7929 24.687 50.5312 28.7566 50.5312 33.0001ZM34.0312 47.0001C35.9272 47.0001 37.8046 46.638 39.5562 45.9344C41.3079 45.2308 42.8995 44.1996 44.2401 42.8996C45.5807 41.5996 46.6442 40.0562 47.3698 38.3577C48.0953 36.6591 48.4688 34.8386 48.4688 33.0001C48.4688 31.1616 48.0953 29.3411 47.3698 27.6425C46.6442 25.944 45.5807 24.4006 44.2401 23.1006C42.8995 21.8006 41.3079 20.7694 39.5562 20.0658C37.8046 19.3622 35.9272 19.0001 34.0312 19.0001C30.2022 19.0001 26.53 20.4751 23.8224 23.1006C21.1148 25.7261 19.5938 29.2871 19.5938 33.0001C19.5938 36.7131 21.1148 40.2741 23.8224 42.8996C26.53 45.5251 30.2022 47.0001 34.0312 47.0001ZM61.8544 15.8801C61.8544 14.0801 60.3488 12.6201 58.4925 12.6201C55.8113 12.6201 53.6663 14.7201 53.6869 17.3001V28.4001C53.6869 30.9061 55.1842 33.1501 57.5025 34.1661V51.4001C57.5025 52.4401 58.3687 53.2801 59.4412 53.2801H59.9156C60.9881 53.2801 61.8544 52.4401 61.8544 51.4001V15.8801ZM14.0663 12.6201C13.6943 12.6201 13.3376 12.7634 13.0745 13.0184C12.8115 13.2735 12.6637 13.6194 12.6637 13.9801V19.3601C12.6637 19.7601 12.3337 20.0601 11.9419 20.0601C11.5294 20.0601 11.22 19.7401 11.22 19.3601V14.0401C11.22 13.3001 10.6219 12.6401 9.85875 12.6201C9.05438 12.6001 8.39438 13.2201 8.39438 13.9801V19.3601C8.39438 19.7601 8.06438 20.0601 7.6725 20.0601C7.26 20.0601 6.95062 19.7401 6.95062 19.3601V14.0401C6.95062 13.3001 6.3525 12.6401 5.58938 12.6201C4.785 12.6001 4.125 13.2201 4.125 13.9801V23.1401C4.125 24.9441 5.02631 26.5541 6.41231 27.5581C7.65188 28.2361 7.65188 31.3401 7.65188 31.3401V51.3801C7.65188 52.4201 8.51813 53.2601 9.59063 53.2601H10.065C11.1375 53.2601 12.0038 52.4201 12.0038 51.3801V31.3401C12.0038 31.3401 12.0037 28.3581 13.2433 27.5581C13.9528 27.0451 14.5291 26.3786 14.9262 25.6116C15.3232 24.8446 15.5302 23.9983 15.5306 23.1401V13.9801C15.5097 13.6157 15.3469 13.2725 15.0751 13.02C14.8032 12.7676 14.4426 12.6246 14.0663 12.6201Z" fill="white"/>
</svg>
