<svg width="85" height="84" viewBox="0 0 85 84" fill="none" xmlns="http://www.w3.org/2000/svg">
<path d="M8.66663 42C8.66663 60.6865 23.8135 75.8333 42.5 75.8333C61.1865 75.8333 76.3333 60.6865 76.3333 42H8.66663Z" fill="white"/>
<path d="M57.6667 42C57.6667 60.6853 53 75.8333 42.5 75.8333C61.1865 75.8333 76.3333 60.6853 76.3333 42H57.6667Z" fill="#BBE8C0"/>
<path d="M8.66663 29.3312L16.8333 37.4979M34.3835 9.15374C34.4945 10.5108 35.0813 11.785 36.0401 12.7517C37.1337 13.8457 37.748 15.3291 37.748 16.8759C37.748 18.4227 37.1337 19.9062 36.0401 21.0001C34.9465 22.094 34.3322 23.5774 34.3322 25.1242C34.3322 26.671 34.9465 28.1545 36.0401 29.2484C37.1337 30.3423 37.748 31.8258 37.748 33.3726C37.748 34.9194 37.1337 36.4028 36.0401 37.4967M40.8316 8.20874C40.715 9.83974 41.254 11.5057 42.5 12.7517C43.5935 13.8457 44.2079 15.3291 44.2079 16.8759C44.2079 18.4227 43.5935 19.9062 42.5 21.0001C41.4064 22.094 40.792 23.5774 40.792 25.1242C40.792 26.671 41.4064 28.1545 42.5 29.2484C43.5935 30.3423 44.2079 31.8258 44.2079 33.3726C44.2079 34.9194 43.5935 36.4028 42.5 37.4967M47.1783 8.49691C47.1572 9.28415 47.2968 10.0674 47.5884 10.799C47.8801 11.5305 48.3177 12.1949 48.8746 12.7517C49.9682 13.8457 50.5826 15.3291 50.5826 16.8759C50.5826 18.4227 49.9682 19.9062 48.8746 21.0001C47.781 22.094 47.1667 23.5774 47.1667 25.1242C47.1667 26.671 47.781 28.1545 48.8746 29.2484C49.9682 30.3423 50.5826 31.8258 50.5826 33.3726C50.5826 34.9194 49.9682 36.4028 48.8746 37.4967M8.66663 42.0001C8.66663 60.6866 23.8135 75.8334 42.5 75.8334C61.1865 75.8334 76.3333 60.6866 76.3333 42.0001H8.66663Z" stroke="#0E811B" stroke-width="2" stroke-miterlimit="10" stroke-linecap="round" stroke-linejoin="round"/>
</svg>
