<svg width="84" height="84" viewBox="0 0 84 84" fill="none" xmlns="http://www.w3.org/2000/svg">
<g clip-path="url(#clip0_212_559)">
<path d="M38.768 10.7625C38.9648 10.7625 39.2109 10.8609 39.4242 11.1562C38.4727 9.79453 40.4906 10.3852 40.6055 9.08906C41.7539 8.23594 41.3438 7.67812 41.6719 7.64531L42.0328 7.35C41.3273 7.6125 41.0812 7.66172 40.8844 7.66172H40.5562C40.3102 7.66172 39.9 7.71094 38.932 8.00625C36.7172 8.17031 35.1258 10.5656 34.3711 10.6313C33.6 11.0414 33.6328 11.1234 33.8133 11.1234C33.8625 11.1234 33.9281 11.107 33.9937 11.107C34.0594 11.107 34.1086 11.0906 34.1578 11.0906C34.3383 11.0906 34.2891 11.1727 33.2391 11.6648C33.4852 11.7305 31.4016 12.6492 31.3852 14.093C31.3195 14.6508 31.5492 15.0281 31.9266 15.0281C32.2547 15.0281 32.6648 14.782 33.1078 14.1586C34.5844 12.4523 37.7016 12.2883 39.0469 11.2547C38.2102 11.1891 38.3742 10.7625 38.768 10.7625ZM31.2703 11.3367C31.1227 11.3367 31.3195 11.1562 31.5328 10.9758C31.7625 10.7953 32.025 10.6148 32.025 10.6148L32.0086 10.6313C32.8945 10.2867 32.3531 10.2047 32.8289 9.975H32.7961C32.6977 9.975 32.8781 9.84375 33.0422 9.69609C33.2062 9.56484 33.3539 9.41719 33.2062 9.41719C33.1242 9.41719 32.9109 9.46641 32.55 9.61406C32.6648 9.45 33.1078 9.33516 33.7313 8.99062C32.8289 9.28594 32.1234 9.46641 32.0414 9.46641C31.9758 9.46641 32.3531 9.33516 33.4852 8.99062C33.5344 8.99062 33.5836 9.00703 33.6164 9.00703C33.7313 9.00703 33.7805 8.97422 33.7641 8.94141C33.7477 8.90859 33.682 8.89219 33.5672 8.89219C31.943 9.02344 30.7289 10.0406 31.0898 10.1719C31.3031 10.1062 31.4508 10.0734 31.5492 10.0734C31.7625 10.0734 31.6641 10.2539 31.2375 10.5164C31.4344 10.9758 27.9562 12.157 27.5625 12.5836C27.7594 12.4687 27.8906 12.4359 27.9562 12.4359C28.2187 12.4359 27.8742 12.9445 27.5297 13.1906C27.743 13.3875 27.907 13.4531 28.0383 13.4531C28.3828 13.4531 28.5305 12.9773 28.8258 12.8297C28.8914 12.9609 28.957 13.0266 29.0391 13.0266C29.318 13.0266 29.6625 12.3375 29.9414 11.9766C30.0234 12.0586 30.1219 12.1242 30.2531 12.1242C30.5156 12.1242 30.9094 11.9109 31.5328 11.3039C31.4016 11.3203 31.3031 11.3367 31.2703 11.3367ZM27.4969 14.3555C26.9063 14.7164 26.5945 14.8641 26.4633 14.8641C26.2172 14.8641 26.5453 14.4047 26.8406 13.9289C27.1359 13.4695 27.3984 13.0102 27.0211 13.0102C26.8406 13.0102 26.5125 13.1086 25.9875 13.3711C24.5602 14.3227 22.1484 16.9477 21.082 16.9477H20.9836C22.7063 15.6844 22.1977 13.207 24.6094 12.5672C26.9883 11.2055 28.6125 11.632 30.7289 10.0734C30.1055 10.3852 29.1867 10.7297 28.9734 10.7297C28.8422 10.7297 29.0391 10.5656 29.8922 10.1555C29.8102 10.1719 29.7445 10.1883 29.6953 10.1883C29.1211 10.1883 33.4688 8.62969 33.682 8.59688C31.8938 8.84297 29.0062 10.3359 28.6125 10.3359C28.5633 10.3359 28.5633 10.3195 28.5633 10.2867C28.6289 10.2375 28.6289 10.2047 28.5633 10.2047C28.35 10.2047 27.4641 10.5 26.5617 10.7953C25.6758 11.0906 24.7734 11.4023 24.5766 11.4023C24.5109 11.4023 24.5109 11.3695 24.6094 11.3039C16.8656 15.7008 10.4016 23.1164 8.38359 31.9102C9.22031 33.8297 8.64609 37.4883 10.0242 38.5547C11.5992 39.8836 8.67891 43.7391 9.45 46.118C10.2375 50.4164 13.6336 53.3531 13.9945 57.75C14.618 60.7687 16.8984 64.4602 17.85 66.3797C18.5719 67.1016 20.557 69.1852 20.9016 69.1852C21.0328 69.1852 20.9508 68.8734 20.4258 68.0367C20.0977 67.1016 18.1945 64.657 19.1133 64.657C19.1625 64.657 19.2117 64.657 19.2773 64.6734C18.1453 63.525 21.7875 63.8367 19.2445 62.2781C18.9492 61.9172 18.8836 61.8023 18.9492 61.8023C19.0312 61.8023 19.2609 61.9336 19.5234 62.0648C19.8023 62.1961 20.1305 62.3273 20.393 62.3273C20.8031 62.3273 21.082 62.0484 20.918 61.0312C20.9836 61.0641 21.0492 61.0641 21.0984 61.0641C21.525 61.0641 21.3773 60.2273 21.4102 59.3906C21.443 58.5539 21.6562 57.7172 22.8047 57.7172C22.9359 57.7172 23.0836 57.7336 23.2313 57.75C25.8891 56.3063 23.5758 52.3195 26.6273 50.8594C26.5125 47.5453 22.0664 47.3813 20.393 46.0359C20.1141 46.2 19.8516 46.2492 19.5891 46.2492C19.2938 46.2492 19.0312 46.1836 18.8016 46.1016C18.5719 46.0359 18.3586 45.9539 18.2109 45.9539C18.1781 45.9539 18.1453 45.9539 18.1125 45.9703C20.9672 45.2156 18.8836 41.2453 16.5211 41.2453H16.357C16.1766 39.5227 15.2906 40.1789 15.1922 38.7516C15.0445 38.8336 14.8969 38.8664 14.7492 38.8664C14.3555 38.8664 13.9945 38.5875 13.6828 38.325C13.3711 38.0461 13.1086 37.7836 12.8789 37.7836C12.6984 37.7836 12.5344 37.9641 12.3867 38.4891C12.5508 37.6852 12.5016 37.4227 12.3375 37.4227C12.1734 37.4227 11.8781 37.7016 11.55 37.9805C11.2383 38.2594 10.8773 38.5383 10.5984 38.5383H10.5164C8.59688 37.1766 10.5328 34.7648 9.51562 32.9109C10.1719 32.2055 10.4344 31.0078 10.1391 31.0078C9.99141 31.0078 9.69609 31.3031 9.23672 32.107C8.58047 30.4336 10.3195 26.6438 11.7961 26.4305C11.8453 26.4305 11.8781 26.4141 11.9273 26.4141C12.1898 26.4141 12.4523 26.5453 12.682 26.8242C12.8133 27.5953 12.4852 29.2195 12.6164 29.2195C12.682 29.2195 12.8133 28.8914 13.1414 28.0383C13.568 26.0859 16.5539 24.675 16.8656 23.4773C16.882 23.4938 16.882 23.4937 16.8984 23.4937C17.243 23.4937 19.4578 21.5414 20.4258 21.3281C20.8031 20.9508 21.0656 20.8195 21.2625 20.8195C21.4758 20.8195 21.5906 20.9836 21.6727 21.1313C21.7547 21.2953 21.8203 21.443 21.9023 21.443C21.968 21.443 22.05 21.3445 22.1977 21.0656C21.6891 20.0648 23.0016 19.1133 22.6406 19.1133C22.5094 19.1133 22.1156 19.2445 21.3117 19.5727C21.1805 19.6383 21.1148 19.6547 21.082 19.6547C20.9836 19.6547 21.3773 19.3922 21.9516 19.1297C22.5258 18.8672 23.2477 18.6047 23.8547 18.6047C24.15 18.6047 24.4125 18.6703 24.6094 18.8344C27.1523 18.2273 25.7578 17.3906 25.8891 17.3906H25.9219C26.6437 16.9641 26.4305 15.3562 27.4969 14.3555ZM16.1273 21.0656C16.0945 21.0656 16.2422 20.8523 16.7344 20.2453C17.7516 19.4906 18.5719 18.982 17.6367 18.4898C18.0469 18.3094 18.4406 18.0961 18.818 17.8664C18.8016 18.6703 18.1289 20.6227 17.768 20.6227C17.6859 20.6227 17.6039 20.5078 17.5711 20.2617C17.7844 19.8844 17.8008 19.7367 17.7188 19.7367C17.5875 19.7367 17.2102 20.0648 16.8492 20.4094C16.4883 20.7211 16.1602 21.0656 16.1273 21.0656ZM17.0625 21.5086C16.6195 21.5086 16.7016 21.2297 18.0633 20.9508C18.6539 20.8687 18.1945 20.9016 18.9 20.7375C18.2109 21.2953 17.4398 21.5086 17.0625 21.5086ZM42.5742 19.8516C42.7711 19.8188 42.9187 19.8188 43.0336 19.8188C43.5094 19.8188 43.2961 20.0156 43.0172 20.2125C42.7383 20.4094 42.3937 20.6062 42.5906 20.6062C42.7055 20.6062 43.0172 20.5406 43.657 20.3602C46.8891 20.1305 42.3937 17.3906 43.1156 16.4719L42.9188 16.4062C41.5898 18.0961 43.8047 18.1289 42.5742 19.8516ZM41.2289 19.9172C41.4586 19.9172 41.7539 19.6547 42.0656 18.9164C42.4922 18.4078 42.3117 18.3422 41.8523 18.0961C40.5891 18.4242 40.7039 19.9172 41.2289 19.9172ZM52.5492 25.118C52.5 25.118 52.4672 25.1344 52.4344 25.1508C52.5656 25.1836 52.6969 25.2164 52.8281 25.2164C52.6969 25.1508 52.6148 25.118 52.5492 25.118ZM74.5828 29.2031C74.8617 29.8102 75.0094 30.0562 75.0258 30.0562C75.1406 30.0562 72.9586 24.7406 72.0563 23.7891C67.3477 16.0453 59.6039 10.1227 50.7773 7.90781H50.7609C50.5312 7.90781 50.7938 8.02266 51.1055 8.1375C51.4172 8.25234 51.7945 8.36719 51.7945 8.36719C51.7945 8.36719 51.5484 8.28516 50.7938 8.07188C49.957 7.82578 49.1039 7.64531 48.2344 7.57969C48.0867 7.62891 51.8273 9.10547 54.3375 9.87656C53.5008 9.61406 52.6312 9.38438 52.418 9.38438C52.2703 9.38438 52.418 9.48281 53.025 9.74531C52.2867 9.53203 51.975 9.43359 51.9422 9.43359C51.893 9.43359 52.9266 9.77812 53.8945 10.1227C54.8789 10.4672 55.8141 10.8117 55.5516 10.8117C55.4859 10.8117 55.3055 10.7789 55.0266 10.7297C55.8633 11.1891 56.1586 11.3695 56.1094 11.3695C56.0273 11.3695 54.9938 10.8773 53.9273 10.3852C52.8773 9.89297 51.8109 9.40078 51.6633 9.40078C51.5812 9.40078 51.7945 9.56484 52.5164 9.99141C53.5008 10.418 54.4852 10.8445 54.2062 10.8445C54.075 10.8445 53.6977 10.7625 52.9594 10.5492C54.6 11.3859 51.7945 11.0578 52.7461 12.1898C52.2211 11.6977 52.0078 11.5336 51.9586 11.5336C51.9094 11.5336 52.0406 11.7305 52.1719 11.9273C52.3031 12.1242 52.4016 12.3211 52.2867 12.3211H52.2539C53.4023 13.568 51.45 12.4523 52.8445 13.568C51.7945 13.0922 50.0063 12.3047 50.8102 12.3047C51.007 12.3047 51.3844 12.3539 51.975 12.4852C50.9086 11.2383 47.8898 11.1891 47.8242 11.0414C47.0695 11.0906 47.0531 11.6648 47.1844 12.7148C47.168 14.3719 45.5438 14.4047 45.757 15.3562C45.757 15.3398 45.7734 15.3398 45.7734 15.3398C45.8063 15.3398 45.8227 15.668 45.9211 16.0125C46.0359 16.3406 46.2328 16.6852 46.6594 16.6852C46.8891 16.6852 47.1844 16.5867 47.5453 16.3406C48.0539 17.2594 48.5133 17.5875 48.8742 17.5875C49.4156 17.5875 49.7438 16.8492 49.7109 16.1766C49.1203 15.8484 48.3492 13.125 49.2023 13.125C49.3336 13.125 49.4977 13.1906 49.7109 13.3383C48.382 16.6031 54.9609 14.4211 51.2367 15.9141C52.0734 17.0133 50.7117 16.9641 51.1055 18.293C50.4656 18.4734 49.7602 18.6375 49.1367 18.6375C48.218 18.6375 47.5125 18.2437 47.5945 16.8656C46.4461 17.4727 48.743 19.5234 46.4625 19.5234H46.3312C45.232 21.5414 41.1141 20.8523 44.3461 22.9852C44.5266 23.9203 43.9359 24.0844 43.1813 24.0844C42.9844 24.0844 42.7711 24.068 42.5578 24.0516C42.3445 24.0352 42.1313 24.0352 41.9344 24.0352C41.0812 24.0352 40.4742 24.2484 40.9992 25.5773C40.6219 26.9555 41.5078 27.5625 42.5906 27.5625C43.9031 27.5625 45.5109 26.7094 45.6258 25.2984C46.3312 24.232 47.2336 23.7891 48.1688 23.7891C49.6453 23.7891 51.2039 24.9047 52.2211 26.2828C52.3031 26.4141 52.3687 26.4633 52.4016 26.4633C52.4836 26.4633 52.4016 26.1352 52.3688 25.807C52.3359 25.5445 52.3359 25.282 52.4344 25.2C50.9742 24.7898 49.8586 23.018 50.3508 23.018C50.5148 23.018 50.8594 23.2148 51.4172 23.7398H51.4992C52.418 23.7398 53.1398 24.4617 53.6977 25.1836C54.2719 25.9055 54.6984 26.6273 55.0758 26.6273C55.2234 26.6273 55.3711 26.4961 55.5023 26.2008C55.4367 26.1023 55.2727 25.8234 55.1906 25.5445C55.0922 25.2 55.0922 24.8555 55.5352 24.8555C55.7156 24.8555 55.9617 24.9211 56.3063 25.0523C57.4219 24.757 55.6008 21.8531 57.0773 21.8531C57.225 21.8531 57.4055 21.8859 57.6352 21.9516C57.6187 22.4602 57.8484 22.6406 58.0617 22.6406C58.4883 22.6406 58.9148 22.0336 57.8812 21.8531C58.275 21.4758 58.5047 21.3281 58.6688 21.3281C59.243 21.3281 58.7836 23.2313 60.7687 23.2313C61.4414 24.8227 54.9281 23.3461 57.0117 26.3977C57.4875 26.7422 58.0781 26.8078 58.6523 26.8078C58.8328 26.8078 58.9969 26.8078 59.1609 26.7914C59.325 26.7914 59.4891 26.775 59.6367 26.775C60.6539 26.775 61.3758 27.0211 60.9328 29.1211C60.3914 29.5148 59.7844 29.6461 59.1609 29.6461C58.6031 29.6461 58.0453 29.5477 57.5039 29.4492C56.9625 29.3508 56.4375 29.2523 55.9617 29.2523C55.2234 29.2523 54.6328 29.4984 54.2719 30.3516C52.3523 29.5641 49.8258 29.5312 50.0719 27.1523C46.725 27.6281 43.2305 27.382 40.7695 29.4328C40.6219 32.4352 35.4703 33.4031 36.7172 36.8156C35.2242 39.9656 38.5219 44.3789 41.8852 44.3789C42 44.3789 42.1312 44.3789 42.2461 44.3625C44.0836 44.3461 45.9375 43.5258 47.5617 43.5258C48.3984 43.5258 49.1531 43.7391 49.8094 44.3953C49.957 44.3789 50.0883 44.3625 50.2031 44.3625C52.7133 44.3625 49.3992 48.3492 52.4016 49.0219C55.125 51.8438 50.7281 54.7477 52.8773 57.4547C53.107 59.5711 54.157 61.343 54.157 63.4102C54.4359 63.443 54.6984 63.4594 54.9773 63.4594C58.4391 63.4594 60.6047 60.4406 62.6391 58.1602C62.0156 54.7477 67.4789 54.075 65.6086 50.2523C64.7391 46.0687 69.7266 43.5914 69.4477 39.4078C69.4969 38.8172 69.3328 38.6367 69.0867 38.6367C68.8406 38.6367 68.4797 38.8172 68.1352 38.9813C67.7742 39.1617 67.3805 39.3258 67.0687 39.3258C66.6586 39.3258 66.3469 39.0469 66.3141 38.1281C63.9023 35.8805 62.8031 32.8289 60.5555 30.3516C63.4758 31.7625 65.1328 34.9453 66.4781 37.8328C66.593 37.8656 66.7078 37.882 66.8391 37.882C69.218 37.882 72.532 32.1891 68.9227 30.8109C68.7258 31.3523 68.4633 31.5492 68.1516 31.5492C67.6102 31.5492 66.9867 30.893 66.5438 30.2531C66.1008 29.5969 65.8711 28.9406 66.1172 28.9406C66.2812 28.9406 66.6422 29.2031 67.2656 29.8922C67.9711 30.3352 68.6602 30.45 69.382 30.45C70.0875 30.45 70.8094 30.3352 71.5641 30.2695C72.5156 30.6469 72.9258 31.8609 73.2211 31.8609C73.2703 31.8609 73.3359 31.8117 73.3852 31.6969C74.1398 33.5016 75.0094 36.7172 75.7969 37.5867C75.3867 34.8305 75.2883 31.9102 74.5828 29.2031ZM65.4281 25.4133C63.5742 24.9375 62.9672 22.6406 61.507 21.3117C61.4906 20.9508 62.032 21.0164 61.9008 20.4094C63.8695 21.0164 63.2297 21.6234 63.0492 21.7383C63.7711 22.9359 65.7891 23.7562 65.4281 25.4133ZM39.9492 12.9281C38.1609 13.4531 37.9148 12.8789 38.2266 13.9781C38.3578 14.0766 38.6039 14.1094 38.85 14.1094C39.7195 14.1258 40.9008 13.6172 39.9492 12.9281ZM66.2156 58.1273C68.5617 56.1422 68.857 53.7797 68.9719 51.3844C67.9219 53.4352 64.8047 55.6992 66.2156 58.1273ZM55.5352 26.1352C55.5187 26.1516 55.5187 26.1516 55.5187 26.168C55.5352 26.2008 55.5516 26.2008 55.5516 26.2008C55.5516 26.2008 55.5516 26.1844 55.5352 26.1352ZM42 0C18.8016 0 0 18.8016 0 42C0 65.1984 18.8016 84 42 84C65.1984 84 84 65.1984 84 42C84 18.8016 65.1984 0 42 0ZM42 80.768C20.5898 80.768 3.23203 63.4102 3.23203 42C3.23203 20.5898 20.5898 3.23203 42 3.23203C63.4102 3.23203 80.768 20.5898 80.768 42C80.768 63.4102 63.4102 80.768 42 80.768Z" fill="#0E811B"/>
</g>
<defs>
<clipPath id="clip0_212_559">
<rect width="84" height="84" fill="white"/>
</clipPath>
</defs>
</svg>
