<svg width="64" height="84" viewBox="0 0 64 84" fill="none" xmlns="http://www.w3.org/2000/svg">
<path d="M17.4545 0C19.512 0 21.4852 0.884997 22.94 2.4603C24.3948 4.03561 25.2121 6.17218 25.2121 8.4C25.2121 10.6278 24.3948 12.7644 22.94 14.3397C21.4852 15.915 19.512 16.8 17.4545 16.8C15.3971 16.8 13.4239 15.915 11.9691 14.3397C10.5143 12.7644 9.69697 10.6278 9.69697 8.4C9.69697 6.17218 10.5143 4.03561 11.9691 2.4603C13.4239 0.884997 15.3971 0 17.4545 0ZM11.6364 84V58.8H0L10.0848 26.88C11.2485 23.52 13.9636 21 17.4545 21C20.9455 21 24.0485 23.52 24.8242 26.88L34.9091 58.8H23.2727V84H11.6364ZM44.6061 42C44.6061 39.7722 45.4234 37.6356 46.8782 36.0603C48.333 34.485 50.3062 33.6 52.3636 33.6C54.4211 33.6 56.3942 34.485 57.8491 36.0603C59.3039 37.6356 60.1212 39.7722 60.1212 42C60.1212 44.2278 59.3039 46.3644 57.8491 47.9397C56.3942 49.515 54.4211 50.4 52.3636 50.4C50.3062 50.4 48.333 49.515 46.8782 47.9397C45.4234 46.3644 44.6061 44.2278 44.6061 42ZM46.5455 54.6H58.1818L64 71.4H58.1818V84H46.5455V71.4H40.7273L46.5455 54.6Z" fill="#0E811B"/>
</svg>
